<mxfile host="app.diagrams.net" modified="2024-03-19T14:03:29.067Z" agent="Mozilla/5.0 (Windows NT 10.0; Win64; x64) AppleWebKit/537.36 (KHTML, like Gecko) Chrome/121.0.0.0 Safari/537.36 OPR/107.0.0.0 (Edition Yx GX)" etag="Pu4gGHdNwajfbAX1jmsY" version="23.1.1" type="device">
  <diagram name="Страница — 1" id="TsazcWNnzsF7FTb2AXLh">
    <mxGraphModel dx="2041" dy="996" grid="1" gridSize="10" guides="1" tooltips="1" connect="1" arrows="1" fold="1" page="1" pageScale="1" pageWidth="827" pageHeight="1169" math="0" shadow="0">
      <root>
        <mxCell id="0" />
        <mxCell id="1" parent="0" />
        <mxCell id="ca5njbpCKfQQGhgV1z4R-1" value="Клиент" style="rounded=0;whiteSpace=wrap;html=1;" parent="1" vertex="1">
          <mxGeometry x="380" y="150" width="100" height="50" as="geometry" />
        </mxCell>
        <mxCell id="ca5njbpCKfQQGhgV1z4R-2" value="Администратор" style="rounded=0;whiteSpace=wrap;html=1;" parent="1" vertex="1">
          <mxGeometry x="190" y="240" width="100" height="50" as="geometry" />
        </mxCell>
        <mxCell id="ca5njbpCKfQQGhgV1z4R-3" value="Ветеринар" style="rounded=0;whiteSpace=wrap;html=1;" parent="1" vertex="1">
          <mxGeometry x="380" y="490" width="100" height="50" as="geometry" />
        </mxCell>
        <mxCell id="ca5njbpCKfQQGhgV1z4R-7" value="Создание заявки" style="rounded=1;whiteSpace=wrap;html=1;" parent="1" vertex="1">
          <mxGeometry x="380" y="240" width="100" height="50" as="geometry" />
        </mxCell>
        <mxCell id="ca5njbpCKfQQGhgV1z4R-8" value="" style="endArrow=classic;html=1;rounded=0;exitX=0.5;exitY=1;exitDx=0;exitDy=0;entryX=0.5;entryY=0;entryDx=0;entryDy=0;" parent="1" source="ca5njbpCKfQQGhgV1z4R-1" target="ca5njbpCKfQQGhgV1z4R-7" edge="1">
          <mxGeometry width="50" height="50" relative="1" as="geometry">
            <mxPoint x="-40" y="240" as="sourcePoint" />
            <mxPoint x="10" y="190" as="targetPoint" />
          </mxGeometry>
        </mxCell>
        <mxCell id="ca5njbpCKfQQGhgV1z4R-9" value="Просмотр информации о клинике" style="rounded=1;whiteSpace=wrap;html=1;" parent="1" vertex="1">
          <mxGeometry x="190" y="150" width="100" height="50" as="geometry" />
        </mxCell>
        <mxCell id="ca5njbpCKfQQGhgV1z4R-10" value="" style="endArrow=classic;html=1;rounded=0;exitX=-0.001;exitY=0.405;exitDx=0;exitDy=0;exitPerimeter=0;entryX=1.007;entryY=0.42;entryDx=0;entryDy=0;entryPerimeter=0;" parent="1" source="ca5njbpCKfQQGhgV1z4R-1" target="ca5njbpCKfQQGhgV1z4R-9" edge="1">
          <mxGeometry width="50" height="50" relative="1" as="geometry">
            <mxPoint x="360" y="340" as="sourcePoint" />
            <mxPoint x="410" y="290" as="targetPoint" />
          </mxGeometry>
        </mxCell>
        <mxCell id="S29woIO4ngzKgeGsmKsS-1" value="Данные о клинике" style="text;html=1;strokeColor=none;fillColor=none;align=center;verticalAlign=middle;whiteSpace=wrap;rounded=0;" parent="1" vertex="1">
          <mxGeometry x="110" y="140" width="80" height="40" as="geometry" />
        </mxCell>
        <mxCell id="S29woIO4ngzKgeGsmKsS-2" value="" style="endArrow=classic;html=1;rounded=0;exitX=0;exitY=0.5;exitDx=0;exitDy=0;entryX=1;entryY=0.5;entryDx=0;entryDy=0;" parent="1" source="ca5njbpCKfQQGhgV1z4R-9" target="ca5njbpCKfQQGhgV1z4R-5" edge="1">
          <mxGeometry width="50" height="50" relative="1" as="geometry">
            <mxPoint x="100" y="290" as="sourcePoint" />
            <mxPoint x="150" y="240" as="targetPoint" />
          </mxGeometry>
        </mxCell>
        <mxCell id="S29woIO4ngzKgeGsmKsS-4" value="Информация о клинике" style="text;html=1;strokeColor=none;fillColor=none;align=center;verticalAlign=middle;whiteSpace=wrap;rounded=0;" parent="1" vertex="1">
          <mxGeometry x="300" y="140" width="80" height="30" as="geometry" />
        </mxCell>
        <mxCell id="Zt2fGhYfgOKF2vGo7JrW-1" value="" style="group" vertex="1" connectable="0" parent="1">
          <mxGeometry y="160" width="110" height="30" as="geometry" />
        </mxCell>
        <mxCell id="ca5njbpCKfQQGhgV1z4R-5" value="1" style="html=1;dashed=0;whiteSpace=wrap;shape=mxgraph.dfd.dataStoreID;align=left;spacingLeft=3;points=[[0,0],[0.5,0],[1,0],[0,0.5],[1,0.5],[0,1],[0.5,1],[1,1]];" parent="Zt2fGhYfgOKF2vGo7JrW-1" vertex="1">
          <mxGeometry width="110" height="30" as="geometry" />
        </mxCell>
        <mxCell id="S29woIO4ngzKgeGsmKsS-3" value="Информация о клинике" style="text;html=1;strokeColor=none;fillColor=none;align=center;verticalAlign=middle;whiteSpace=wrap;rounded=0;" parent="Zt2fGhYfgOKF2vGo7JrW-1" vertex="1">
          <mxGeometry x="30" width="80" height="30" as="geometry" />
        </mxCell>
        <mxCell id="Zt2fGhYfgOKF2vGo7JrW-3" value="" style="group" vertex="1" connectable="0" parent="1">
          <mxGeometry x="380" y="330" width="100" height="30" as="geometry" />
        </mxCell>
        <mxCell id="Zt2fGhYfgOKF2vGo7JrW-4" value="2" style="html=1;dashed=0;whiteSpace=wrap;shape=mxgraph.dfd.dataStoreID;align=left;spacingLeft=3;points=[[0,0],[0.5,0],[1,0],[0,0.5],[1,0.5],[0,1],[0.5,1],[1,1]];" vertex="1" parent="Zt2fGhYfgOKF2vGo7JrW-3">
          <mxGeometry width="100" height="30" as="geometry" />
        </mxCell>
        <mxCell id="Zt2fGhYfgOKF2vGo7JrW-5" value="Заявки" style="text;html=1;strokeColor=none;fillColor=none;align=center;verticalAlign=middle;whiteSpace=wrap;rounded=0;" vertex="1" parent="Zt2fGhYfgOKF2vGo7JrW-3">
          <mxGeometry x="27.272727272727273" width="72.72727272727272" height="30" as="geometry" />
        </mxCell>
        <mxCell id="Zt2fGhYfgOKF2vGo7JrW-6" value="Данные для заявки" style="text;html=1;strokeColor=none;fillColor=none;align=center;verticalAlign=middle;whiteSpace=wrap;rounded=0;" vertex="1" parent="1">
          <mxGeometry x="430" y="200" width="80" height="40" as="geometry" />
        </mxCell>
        <mxCell id="Zt2fGhYfgOKF2vGo7JrW-7" value="" style="endArrow=classic;html=1;rounded=0;exitX=0.5;exitY=1;exitDx=0;exitDy=0;entryX=0.5;entryY=0;entryDx=0;entryDy=0;" edge="1" parent="1">
          <mxGeometry width="50" height="50" relative="1" as="geometry">
            <mxPoint x="430" y="290" as="sourcePoint" />
            <mxPoint x="430" y="330" as="targetPoint" />
          </mxGeometry>
        </mxCell>
        <mxCell id="Zt2fGhYfgOKF2vGo7JrW-8" value="Информация о заявке" style="text;html=1;strokeColor=none;fillColor=none;align=center;verticalAlign=middle;whiteSpace=wrap;rounded=0;" vertex="1" parent="1">
          <mxGeometry x="430" y="290" width="80" height="40" as="geometry" />
        </mxCell>
        <mxCell id="Zt2fGhYfgOKF2vGo7JrW-10" value="Выполнение заявки" style="rounded=1;whiteSpace=wrap;html=1;" vertex="1" parent="1">
          <mxGeometry x="500" y="400" width="100" height="50" as="geometry" />
        </mxCell>
        <mxCell id="Zt2fGhYfgOKF2vGo7JrW-13" value="" style="endArrow=classic;html=1;rounded=0;exitX=0.5;exitY=0;exitDx=0;exitDy=0;entryX=1;entryY=0.5;entryDx=0;entryDy=0;" edge="1" parent="1" source="Zt2fGhYfgOKF2vGo7JrW-10" target="Zt2fGhYfgOKF2vGo7JrW-5">
          <mxGeometry width="50" height="50" relative="1" as="geometry">
            <mxPoint x="540" y="400" as="sourcePoint" />
            <mxPoint x="490" y="340" as="targetPoint" />
            <Array as="points">
              <mxPoint x="550" y="345" />
            </Array>
          </mxGeometry>
        </mxCell>
        <mxCell id="Zt2fGhYfgOKF2vGo7JrW-14" value="" style="endArrow=classic;html=1;rounded=0;exitX=1;exitY=0.5;exitDx=0;exitDy=0;entryX=0.5;entryY=1;entryDx=0;entryDy=0;" edge="1" parent="1" source="ca5njbpCKfQQGhgV1z4R-3" target="Zt2fGhYfgOKF2vGo7JrW-10">
          <mxGeometry width="50" height="50" relative="1" as="geometry">
            <mxPoint x="620" y="515" as="sourcePoint" />
            <mxPoint x="540" y="470" as="targetPoint" />
            <Array as="points">
              <mxPoint x="550" y="515" />
            </Array>
          </mxGeometry>
        </mxCell>
        <mxCell id="Zt2fGhYfgOKF2vGo7JrW-15" value="Выполнение заявки" style="rounded=1;whiteSpace=wrap;html=1;" vertex="1" parent="1">
          <mxGeometry x="380" y="400" width="100" height="50" as="geometry" />
        </mxCell>
        <mxCell id="Zt2fGhYfgOKF2vGo7JrW-18" value="" style="endArrow=classic;html=1;rounded=0;exitX=0.31;exitY=1.015;exitDx=0;exitDy=0;entryX=0.5;entryY=0;entryDx=0;entryDy=0;exitPerimeter=0;" edge="1" parent="1" source="Zt2fGhYfgOKF2vGo7JrW-5" target="Zt2fGhYfgOKF2vGo7JrW-15">
          <mxGeometry width="50" height="50" relative="1" as="geometry">
            <mxPoint x="520" y="410" as="sourcePoint" />
            <mxPoint x="570" y="360" as="targetPoint" />
          </mxGeometry>
        </mxCell>
        <mxCell id="Zt2fGhYfgOKF2vGo7JrW-20" value="" style="endArrow=classic;html=1;rounded=0;exitX=0.31;exitY=1.015;exitDx=0;exitDy=0;entryX=0.5;entryY=0;entryDx=0;entryDy=0;exitPerimeter=0;" edge="1" parent="1">
          <mxGeometry width="50" height="50" relative="1" as="geometry">
            <mxPoint x="429.67" y="450" as="sourcePoint" />
            <mxPoint x="429.67" y="490" as="targetPoint" />
          </mxGeometry>
        </mxCell>
        <mxCell id="Zt2fGhYfgOKF2vGo7JrW-21" value="Информация о заявке" style="text;html=1;strokeColor=none;fillColor=none;align=center;verticalAlign=middle;whiteSpace=wrap;rounded=0;" vertex="1" parent="1">
          <mxGeometry x="430" y="360" width="80" height="40" as="geometry" />
        </mxCell>
        <mxCell id="Zt2fGhYfgOKF2vGo7JrW-22" value="Данные о заявке" style="text;html=1;strokeColor=none;fillColor=none;align=center;verticalAlign=middle;whiteSpace=wrap;rounded=0;" vertex="1" parent="1">
          <mxGeometry x="430" y="450" width="80" height="40" as="geometry" />
        </mxCell>
        <mxCell id="Zt2fGhYfgOKF2vGo7JrW-23" value="&lt;font style=&quot;font-size: 11px;&quot;&gt;Данные о выполнении заявки&lt;/font&gt;" style="text;html=1;strokeColor=none;fillColor=none;align=center;verticalAlign=middle;whiteSpace=wrap;rounded=0;" vertex="1" parent="1">
          <mxGeometry x="550" y="460" width="70" height="50" as="geometry" />
        </mxCell>
        <mxCell id="Zt2fGhYfgOKF2vGo7JrW-24" value="&lt;font style=&quot;font-size: 11px;&quot;&gt;Информация о выполнении заявки&lt;/font&gt;" style="text;html=1;strokeColor=none;fillColor=none;align=center;verticalAlign=middle;whiteSpace=wrap;rounded=0;" vertex="1" parent="1">
          <mxGeometry x="550" y="340" width="80" height="50" as="geometry" />
        </mxCell>
        <mxCell id="Zt2fGhYfgOKF2vGo7JrW-36" value="Обработка заявок" style="rounded=1;whiteSpace=wrap;html=1;" vertex="1" parent="1">
          <mxGeometry x="190" y="330" width="100" height="50" as="geometry" />
        </mxCell>
        <mxCell id="Zt2fGhYfgOKF2vGo7JrW-37" value="Изменение информации о клинике" style="rounded=1;whiteSpace=wrap;html=1;" vertex="1" parent="1">
          <mxGeometry y="240" width="110" height="50" as="geometry" />
        </mxCell>
        <mxCell id="Zt2fGhYfgOKF2vGo7JrW-38" value="Данные о клинике" style="text;html=1;strokeColor=none;fillColor=none;align=center;verticalAlign=middle;whiteSpace=wrap;rounded=0;" vertex="1" parent="1">
          <mxGeometry x="110" y="230" width="80" height="40" as="geometry" />
        </mxCell>
        <mxCell id="Zt2fGhYfgOKF2vGo7JrW-39" value="" style="endArrow=classic;html=1;rounded=0;exitX=0;exitY=0.5;exitDx=0;exitDy=0;entryX=1;entryY=0.5;entryDx=0;entryDy=0;" edge="1" parent="1">
          <mxGeometry width="50" height="50" relative="1" as="geometry">
            <mxPoint x="190" y="265" as="sourcePoint" />
            <mxPoint x="110" y="265" as="targetPoint" />
          </mxGeometry>
        </mxCell>
        <mxCell id="Zt2fGhYfgOKF2vGo7JrW-40" value="" style="endArrow=classic;html=1;rounded=0;exitX=0.5;exitY=0;exitDx=0;exitDy=0;entryX=0.314;entryY=1.051;entryDx=0;entryDy=0;entryPerimeter=0;" edge="1" parent="1" source="Zt2fGhYfgOKF2vGo7JrW-37" target="S29woIO4ngzKgeGsmKsS-3">
          <mxGeometry width="50" height="50" relative="1" as="geometry">
            <mxPoint x="60" y="360" as="sourcePoint" />
            <mxPoint x="60" y="210" as="targetPoint" />
          </mxGeometry>
        </mxCell>
        <mxCell id="Zt2fGhYfgOKF2vGo7JrW-41" value="" style="endArrow=classic;html=1;rounded=0;exitX=0.5;exitY=1;exitDx=0;exitDy=0;entryX=0.5;entryY=0;entryDx=0;entryDy=0;" edge="1" parent="1">
          <mxGeometry width="50" height="50" relative="1" as="geometry">
            <mxPoint x="240" y="290" as="sourcePoint" />
            <mxPoint x="240" y="330" as="targetPoint" />
          </mxGeometry>
        </mxCell>
        <mxCell id="Zt2fGhYfgOKF2vGo7JrW-42" value="Информация о заявке" style="text;html=1;strokeColor=none;fillColor=none;align=center;verticalAlign=middle;whiteSpace=wrap;rounded=0;" vertex="1" parent="1">
          <mxGeometry x="290" y="350" width="80" height="40" as="geometry" />
        </mxCell>
        <mxCell id="Zt2fGhYfgOKF2vGo7JrW-43" value="" style="endArrow=classic;html=1;rounded=0;entryX=-0.002;entryY=0.711;entryDx=0;entryDy=0;entryPerimeter=0;exitX=0.994;exitY=0.421;exitDx=0;exitDy=0;exitPerimeter=0;" edge="1" parent="1" source="Zt2fGhYfgOKF2vGo7JrW-36" target="Zt2fGhYfgOKF2vGo7JrW-4">
          <mxGeometry width="50" height="50" relative="1" as="geometry">
            <mxPoint x="290" y="430" as="sourcePoint" />
            <mxPoint x="340" y="380" as="targetPoint" />
          </mxGeometry>
        </mxCell>
        <mxCell id="Zt2fGhYfgOKF2vGo7JrW-44" value="Информация о клинике" style="text;html=1;strokeColor=none;fillColor=none;align=center;verticalAlign=middle;whiteSpace=wrap;rounded=0;" vertex="1" parent="1">
          <mxGeometry x="60" y="200" width="80" height="30" as="geometry" />
        </mxCell>
        <mxCell id="Zt2fGhYfgOKF2vGo7JrW-45" value="Данные о заявке" style="text;html=1;strokeColor=none;fillColor=none;align=center;verticalAlign=middle;whiteSpace=wrap;rounded=0;" vertex="1" parent="1">
          <mxGeometry x="240" y="290" width="80" height="40" as="geometry" />
        </mxCell>
      </root>
    </mxGraphModel>
  </diagram>
</mxfile>
